HIERARCHY
ROOT Hips
{
	OFFSET	0.000000	0.000000	0.000000
	CHANNELS 6 Xposition Yposition Zposition Zrotation Xrotation Yrotation
	JOINT LeftHip
	{
		OFFSET	4.740440	-3.195970	-0.322709
		CHANNELS 3 Zrotation Xrotation Yrotation
		JOINT LeftKnee
		{
			OFFSET	-1.605680	-15.592300	1.005510
			CHANNELS 3 Zrotation Xrotation Yrotation
			JOINT LeftAnkle
			{
				OFFSET	-0.632401	-16.421000	-1.413730
				CHANNELS 3 Zrotation Xrotation Yrotation
				End Site
				{
					OFFSET	0.008423	-3.933000	-1.776750
				}
			}
		}
	}
	JOINT RightHip
	{
		OFFSET	-4.740440	-3.195970	-0.322709
		CHANNELS 3 Zrotation Xrotation Yrotation
		JOINT RightKnee
		{
			OFFSET	1.605680	-15.592300	1.005510
			CHANNELS 3 Zrotation Xrotation Yrotation
			JOINT RightAnkle
			{
				OFFSET	0.632401	-16.421000	-1.413730
				CHANNELS 3 Zrotation Xrotation Yrotation
				End Site
				{
					OFFSET	-0.008423	-3.933000	-1.776750
				}
			}
		}
	}
	JOINT Chest
	{
		OFFSET	0.000000	3.468200	0.078401
		CHANNELS 3 Zrotation Xrotation Yrotation
		JOINT LeftCollar
		{
			OFFSET	3.857650	15.070700	-0.011583
			CHANNELS 3 Zrotation Xrotation Yrotation
			JOINT LeftShoulder
			{
				OFFSET	3.979720	-1.940530	-0.165223
				CHANNELS 3 Zrotation Xrotation Yrotation
				JOINT LeftElbow
				{
					OFFSET	0.615844	-10.986600	-0.673886
					CHANNELS 3 Zrotation Xrotation Yrotation
					JOINT LeftWrist
					{
						OFFSET	0.826843	-10.854500	1.034220
						CHANNELS 3 Zrotation Xrotation Yrotation
						End Site
						{
							OFFSET	-1.679080	-8.456540	0.936217
						}
					}
				}
			}
		}
		JOINT RightCollar
		{
			OFFSET	-3.857650	15.070700	-0.011583
			CHANNELS 3 Zrotation Xrotation Yrotation
			JOINT RightShoulder
			{
				OFFSET	-3.979720	-1.940530	-0.165223
				CHANNELS 3 Zrotation Xrotation Yrotation
				JOINT RightElbow
				{
					OFFSET	-0.615845	-10.986600	-0.673886
					CHANNELS 3 Zrotation Xrotation Yrotation
					JOINT RightWrist
					{
						OFFSET	-0.826843	-10.854500	1.034220
						CHANNELS 3 Zrotation Xrotation Yrotation
						End Site
						{
							OFFSET	1.679080	-8.456540	0.936217
						}
					}
				}
			}
		}
		JOINT Neck
		{
			OFFSET	0.000000	15.101400	0.055730
			CHANNELS 3 Zrotation Xrotation Yrotation
			JOINT Head
			{
				OFFSET	0.000000	4.185120	1.488260
				CHANNELS 3 Zrotation Xrotation Yrotation
				End Site
				{
					OFFSET	0.000000	7.773420	-0.106016
				}
			}
		}
	}
}
MOTION
Frames:     12
Frame Time: 0.016667
-6.581335	21.910646	3.354353	6.862412	-19.841885	-18.862579	54.018993	-30.341097	31.575996	26.109167	116.604797	-53.026222	-3.832028	-23.235336	-4.760944	-22.060562	2.524065	9.945535	-4.922757	119.691345	32.208214	-11.560713	-9.872747	-8.109843	-7.437289	45.428696	8.004134	8.453740	-9.560058	-1.969205	49.066586	-13.851516	1.034045	-66.039658	-16.328093	-69.416473	63.028023	-40.452492	0.898379	-6.128898	0.218536	-0.698855	-22.535233	6.016142	14.638994	27.496908	-38.921349	65.948547	-55.032669	-31.116003	-14.804132	0.984439	-16.472309	8.217433	-9.234646	-4.156939	-6.559390	
-6.579759	21.909235	3.357443	6.851076	-19.836414	-18.860014	54.012573	-30.362598	31.567806	26.063221	116.607216	-52.964695	-3.835466	-23.254972	-4.762541	-22.063681	2.516835	9.955793	-4.911364	119.693741	32.208496	-11.537969	-9.882027	-8.081567	-7.422049	45.418926	7.973110	8.461047	-9.548148	-1.946401	49.067463	-13.856282	1.034497	-66.048271	-16.365288	-69.413696	63.032341	-40.456856	0.925247	-6.125610	0.241721	-0.687963	-22.527521	6.000591	14.638943	27.492949	-38.921997	65.956841	-55.029350	-31.102312	-14.801778	0.970932	-16.465704	8.250303	-9.221443	-4.158055	-6.553789	
-6.577186	21.906279	3.359748	6.839104	-19.830627	-18.857304	54.010567	-30.391024	31.563288	26.008539	116.615402	-52.892605	-3.839006	-23.274427	-4.764116	-22.066845	2.509232	9.966634	-4.899893	119.696281	32.209316	-11.514455	-9.891582	-8.052386	-7.406888	45.407684	7.940132	8.469666	-9.534628	-1.921560	49.069645	-13.868770	1.035729	-66.092773	-16.371296	-69.420647	63.054047	-40.459949	0.923628	-6.125665	0.264796	-0.670693	-22.505814	5.994614	14.626968	27.485353	-38.922951	65.976486	-55.025963	-31.088348	-14.799376	0.955112	-16.460125	8.273763	-9.207962	-4.160391	-6.526894	
-6.574049	21.903475	3.361816	6.826435	-19.824512	-18.854443	54.009193	-30.420359	31.558752	25.956099	116.624512	-52.822205	-3.847371	-23.293205	-4.765364	-22.069679	2.501429	9.977682	-4.889147	119.699081	32.210968	-11.490829	-9.901253	-8.022497	-7.391334	45.395164	7.904601	8.479341	-9.519598	-1.894367	49.072140	-13.883060	1.037135	-66.143448	-16.397297	-69.427383	63.041794	-40.463482	0.902512	-6.128791	0.286794	-0.646223	-22.482027	5.990651	14.611107	27.480137	-38.922718	65.996262	-55.022427	-31.073742	-14.796881	0.951747	-16.483711	8.247618	-9.225388	-4.129446	-6.406653	
-6.568266	21.901106	3.362937	6.812923	-19.817991	-18.851395	54.008251	-30.451921	31.554258	25.916540	116.639633	-52.762825	-3.854454	-23.310022	-4.765298	-22.072256	2.493261	9.989401	-4.880050	119.702347	32.215206	-11.467481	-9.910849	-7.992712	-7.374489	45.381878	7.866041	8.489525	-9.503527	-1.864884	49.074802	-13.898268	1.038637	-66.233444	-16.448025	-69.448448	62.949490	-40.470627	0.822522	-6.131410	0.308540	-0.619059	-22.460735	5.985768	14.594986	27.477316	-38.921299	66.015991	-55.019058	-31.059790	-14.794478	0.929832	-16.525309	8.176067	-9.211921	-4.106941	-6.223692	
-6.559738	21.899221	3.363155	6.798914	-19.811234	-18.848251	54.007427	-30.484800	31.549734	25.892204	116.661560	-52.717316	-3.851808	-23.325157	-4.763747	-22.074799	2.484895	10.001208	-4.870378	119.705635	32.219921	-11.444142	-9.920268	-7.963835	-7.357245	45.367737	7.825407	8.500387	-9.486399	-1.833544	49.077400	-13.913133	1.040092	-66.262627	-16.455807	-69.446709	62.925606	-40.508904	0.821144	-6.133372	0.330306	-0.589650	-22.448549	5.974569	14.577412	27.484734	-38.914841	66.035805	-55.015896	-31.046673	-14.792232	0.942136	-16.598562	8.096995	-9.221107	-4.050632	-6.022071	
-6.551406	21.897324	3.363351	6.784612	-19.804331	-18.845055	54.007721	-30.517500	31.545530	25.867847	116.683281	-52.672417	-3.849247	-23.339842	-4.762261	-22.077438	2.476301	10.013386	-4.859280	119.708740	32.223698	-11.420232	-9.929689	-7.935472	-7.339670	45.353008	7.782990	8.507563	-9.470948	-1.802896	49.083748	-13.925193	1.040620	-66.343155	-16.462927	-69.466385	62.880554	-40.510086	0.732020	-6.134755	0.351654	-0.558258	-22.437454	5.963693	14.559897	27.492559	-38.904957	66.036125	-55.009827	-31.051123	-14.778679	0.963033	-16.683264	8.041189	-9.240021	-3.979279	-5.831565	
-6.543061	21.896290	3.363604	6.762215	-19.793524	-18.840050	54.016697	-30.554749	31.540052	25.844065	116.704659	-52.628410	-3.846904	-23.353243	-4.760884	-22.072046	2.468061	10.020967	-4.847316	119.711922	32.226158	-11.396313	-9.939218	-7.906608	-7.308501	45.337650	7.732509	8.509065	-9.458581	-1.774144	49.095085	-13.932920	1.039853	-66.403374	-16.482315	-69.477394	62.861443	-40.525505	0.716774	-6.135897	0.371936	-0.525377	-22.427097	5.953724	14.543075	27.500059	-38.895451	66.036606	-55.004021	-31.055159	-14.765749	0.984863	-16.740347	8.038247	-9.269858	-3.927323	-5.690831	
-6.535210	21.893562	3.363038	6.754484	-19.789799	-18.838318	54.013176	-30.584553	31.538813	25.820297	116.726120	-52.584442	-3.844737	-23.365623	-4.759626	-22.082384	2.458609	10.037787	-4.835315	119.715065	32.228920	-11.371656	-9.948891	-7.877593	-7.301315	45.323399	7.693922	8.510448	-9.446236	-1.745316	49.106564	-13.940308	1.039022	-66.433693	-16.472090	-69.477921	62.866367	-40.566402	0.737692	-6.136887	0.392059	-0.492222	-22.416924	5.943929	14.526539	27.507481	-38.886524	66.039688	-54.998737	-31.056898	-14.754596	1.013305	-16.794359	8.089272	-9.243236	-3.894293	-5.674090	
-6.527506	21.892765	3.361589	6.738613	-19.782139	-18.834772	54.017315	-30.619326	31.535833	25.805164	116.743874	-52.546886	-3.843598	-23.372204	-4.759013	-22.083551	2.449608	10.050855	-4.823866	119.718140	32.232903	-11.346564	-9.958438	-7.849724	-7.281707	45.307869	7.649202	8.512025	-9.433635	-1.716753	49.118343	-13.946722	1.038015	-66.510597	-16.449293	-69.499931	62.896999	-40.587059	0.728161	-6.137308	0.412830	-0.459002	-22.406906	5.933861	14.510990	27.509054	-38.876713	66.039574	-54.995735	-31.061016	-14.748615	1.034005	-16.844738	8.089584	-9.234076	-3.872697	-5.562536	
-6.520386	21.893373	3.358922	6.722114	-19.774174	-18.831093	54.022007	-30.654116	31.532618	25.800585	116.756744	-52.517975	-3.843598	-23.372204	-4.759013	-22.084751	2.440092	10.065114	-4.813604	119.721619	32.240154	-11.321584	-9.967718	-7.823242	-7.262990	45.290840	7.605189	8.514298	-9.420263	-1.688677	49.130722	-13.951805	1.036749	-66.542465	-16.559795	-69.495438	62.748806	-40.616589	0.687054	-6.136193	0.434760	-0.425485	-22.397078	5.923779	14.496093	27.501968	-38.866039	66.041008	-54.998058	-31.067564	-14.754653	1.014277	-16.842285	8.097410	-9.174795	-3.920273	-5.485013	
-6.513275	21.894733	3.356653	6.697456	-19.762274	-18.825644	54.034683	-30.692463	31.532169	25.787745	116.767204	-52.480637	-3.843598	-23.372204	-4.759013	-22.076803	2.430701	10.076917	-4.804483	119.724937	32.259186	-11.296421	-9.975225	-7.806346	-7.232150	45.272312	7.555192	8.516479	-9.406719	-1.661065	49.144352	-13.955625	1.040322	-66.579704	-16.588055	-69.500130	62.721546	-40.644772	0.684263	-6.134097	0.457152	-0.391627	-22.387556	5.913873	14.481890	27.493595	-38.856514	66.048325	-55.001369	-31.074814	-14.753045	0.987899	-16.832819	8.128585	-9.079966	-3.980878	-5.471074	
